<svg xmlns="http://www.w3.org/2000/svg" viewBox="0 0 256 256" fill="none">
  <defs>
    <radialGradient id="a" cx="0" cy="0" r="1" gradientTransform="translate(128 78) rotate(90) scale(152)" gradientUnits="userSpaceOnUse">
      <stop stop-color="#D9FF9B"/>
      <stop offset=".45" stop-color="#8EDB32"/>
      <stop offset="1" stop-color="#365B13"/>
    </radialGradient>
    <linearGradient id="b" x1="55" x2="212" y1="40" y2="218" gradientUnits="userSpaceOnUse">
      <stop stop-color="#F0FFD3"/>
      <stop offset=".35" stop-color="#A3F042"/>
      <stop offset=".75" stop-color="#4E8716"/>
      <stop offset="1" stop-color="#203B0A"/>
    </linearGradient>
    <filter id="c" width="212" height="212" x="22" y="22" color-interpolation-filters="sRGB" filterUnits="userSpaceOnUse">
      <feGaussianBlur stdDeviation="9"/>
    </filter>
  </defs>
  <rect width="256" height="256" rx="54" fill="#0B1008"/>
  <circle cx="128" cy="128" r="95" fill="#121A0E"/>
  <circle cx="128" cy="128" r="85" stroke="url(#a)" stroke-opacity=".2" stroke-width="2"/>
  <g filter="url(#c)" opacity=".6">
    <circle cx="128" cy="128" r="82" stroke="#8BEB35" stroke-width="18"/>
  </g>
  <circle cx="128" cy="128" r="82" stroke="url(#b)" stroke-width="22"/>
  <path stroke="#EDFFCD" stroke-linecap="round" stroke-opacity=".9" stroke-width="10" d="M81 72c13-9 27-14 47-14 33 0 58 13 75 39"/>
  <circle cx="128" cy="128" r="46" fill="#0A0F08"/>
  <circle cx="128" cy="128" r="44" stroke="#36561A" stroke-width="2"/>
  <path fill="#162510" d="M128 92 164 128 128 164 92 128z"/>
  <path fill="#A6F146" fill-opacity=".78" d="M128 103 153 128 128 153 103 128z"/>
</svg>
