<svg xmlns="http://www.w3.org/2000/svg" viewBox="0 0 256 256" fill="none">
  <defs>
    <linearGradient id="ring" x1="40" y1="40" x2="216" y2="216" gradientUnits="userSpaceOnUse">
      <stop stop-color="#B7FF8D"/>
      <stop offset=".32" stop-color="#73F23A"/>
      <stop offset=".68" stop-color="#2BB419"/>
      <stop offset="1" stop-color="#9CFF6B"/>
    </linearGradient>
    <linearGradient id="ring-dim" x1="155" y1="34" x2="222" y2="101" gradientUnits="userSpaceOnUse">
      <stop stop-color="#83B56F"/>
      <stop offset=".5" stop-color="#35542D"/>
      <stop offset="1" stop-color="#6F9A5B"/>
    </linearGradient>
    <filter id="ring-glow" x="2" y="2" width="252" height="252" color-interpolation-filters="sRGB" filterUnits="userSpaceOnUse">
      <feGaussianBlur stdDeviation="6"/>
    </filter>
    <filter id="power-glow" x="86" y="86" width="84" height="84" color-interpolation-filters="sRGB" filterUnits="userSpaceOnUse">
      <feGaussianBlur stdDeviation="4"/>
    </filter>
  </defs>

  <rect width="256" height="256" rx="36" fill="#000"/>

  <g filter="url(#ring-glow)" opacity=".24">
    <path d="M155 33.8A98 98 0 0 1 222.2 101" stroke="#7EFF4E" stroke-linecap="round" stroke-width="16"/>
  </g>

  <g filter="url(#ring-glow)" opacity=".9">
    <path d="M222.2 155A98 98 0 0 1 155 222.2" stroke="#83FF52" stroke-linecap="round" stroke-width="16"/>
    <path d="M101 222.2A98 98 0 0 1 33.8 155" stroke="#83FF52" stroke-linecap="round" stroke-width="16"/>
    <path d="M33.8 101A98 98 0 0 1 101 33.8" stroke="#83FF52" stroke-linecap="round" stroke-width="16"/>
  </g>

  <path d="M155 33.8A98 98 0 0 1 222.2 101" stroke="url(#ring-dim)" stroke-linecap="round" stroke-width="10"/>
  <path d="M222.2 155A98 98 0 0 1 155 222.2" stroke="url(#ring)" stroke-linecap="round" stroke-width="10"/>
  <path d="M101 222.2A98 98 0 0 1 33.8 155" stroke="url(#ring)" stroke-linecap="round" stroke-width="10"/>
  <path d="M33.8 101A98 98 0 0 1 101 33.8" stroke="url(#ring)" stroke-linecap="round" stroke-width="10"/>

  <g filter="url(#power-glow)" opacity=".9">
    <path d="M128 107v19" stroke="#83FF52" stroke-linecap="round" stroke-width="9"/>
    <path d="M113 111a21 21 0 1 0 30 0" stroke="#83FF52" stroke-linecap="round" stroke-width="9"/>
  </g>

  <path d="M128 107v19" stroke="#7DF547" stroke-linecap="round" stroke-width="7"/>
  <path d="M113 111a21 21 0 1 0 30 0" stroke="#7DF547" stroke-linecap="round" stroke-width="7"/>
</svg>
